<svg width="20" height="19" viewBox="0 0 20 19" fill="none" xmlns="http://www.w3.org/2000/svg">
<path d="M8.52289 1.46437L0.22874 15.8292C0.0789182 16.0886 2.77288e-05 16.3829 7.30835e-09 16.6825C-2.77142e-05 16.982 0.0788082 17.2763 0.228582 17.5358C0.378355 17.7952 0.593789 18.0106 0.853223 18.1604C1.11266 18.3102 1.40695 18.389 1.70652 18.389H18.2935C18.5931 18.389 18.8873 18.3102 19.1468 18.1604C19.4062 18.0106 19.6216 17.7952 19.7714 17.5358C19.9212 17.2763 20 16.982 20 16.6825C20 16.3829 19.9211 16.0886 19.7713 15.8292L11.478 1.46437C11.3282 1.20501 11.1129 0.98964 10.8535 0.8399C10.5941 0.69016 10.2999 0.611328 10.0004 0.611328C9.70096 0.611328 9.40675 0.69016 9.14738 0.8399C8.88802 0.98964 8.67264 1.20501 8.52289 1.46437Z" fill="#F63F24"/>
<path d="M10.1086 5.89481H9.89227C9.3596 5.89481 8.92778 6.32662 8.92778 6.85929V11.4694C8.92778 12.002 9.3596 12.4338 9.89227 12.4338H10.1086C10.6413 12.4338 11.0731 12.002 11.0731 11.4694V6.85929C11.0731 6.32662 10.6413 5.89481 10.1086 5.89481Z" fill="white"/>
<path d="M10.0004 16.0901C10.5929 16.0901 11.0731 15.6099 11.0731 15.0174C11.0731 14.425 10.5929 13.9448 10.0004 13.9448C9.40803 13.9448 8.92778 14.425 8.92778 15.0174C8.92778 15.6099 9.40803 16.0901 10.0004 16.0901Z" fill="white"/>
</svg>
