<svg width="95" height="79" viewBox="0 0 95 79" fill="none" xmlns="http://www.w3.org/2000/svg">
<g filter="url(#filter0_d_601_6176)">
<rect x="25" y="15.4092" width="45" height="38.182" rx="8" fill="white" shape-rendering="crispEdges"/>
<path d="M58.8636 33.3778H38.8793L44.8942 27.3629C45.0027 27.2581 45.0893 27.1327 45.1488 26.9941C45.2084 26.8554 45.2397 26.7063 45.2411 26.5554C45.2424 26.4045 45.2136 26.2549 45.1565 26.1152C45.0993 25.9756 45.015 25.8487 44.9083 25.742C44.8016 25.6353 44.6747 25.5509 44.535 25.4938C44.3954 25.4367 44.2457 25.4079 44.0948 25.4092C43.944 25.4105 43.7948 25.4419 43.6562 25.5014C43.5176 25.561 43.3922 25.6476 43.2873 25.7561L35.3327 33.7107C35.1197 33.9238 35 34.2128 35 34.5141C35 34.8155 35.1197 35.1045 35.3327 35.3176L43.2873 43.2722C43.5017 43.4792 43.7887 43.5937 44.0867 43.5911C44.3846 43.5885 44.6696 43.469 44.8803 43.2583C45.091 43.0476 45.2105 42.7626 45.2131 42.4647C45.2157 42.1667 45.1012 41.8797 44.8942 41.6653L38.8793 35.6505H58.8636C59.165 35.6505 59.4541 35.5308 59.6672 35.3177C59.8803 35.1046 60 34.8155 60 34.5141C60 34.2128 59.8803 33.9237 59.6672 33.7106C59.4541 33.4975 59.165 33.3778 58.8636 33.3778Z" fill="black"/>
</g>
<defs>
<filter id="filter0_d_601_6176" x="0" y="-9.59082" width="95" height="88.1821" filterUnits="userSpaceOnUse" color-interpolation-filters="sRGB">
<feFlood flood-opacity="0" result="BackgroundImageFix"/>
<feColorMatrix in="SourceAlpha" type="matrix" values="0 0 0 0 0 0 0 0 0 0 0 0 0 0 0 0 0 0 127 0" result="hardAlpha"/>
<feOffset/>
<feGaussianBlur stdDeviation="12.5"/>
<feComposite in2="hardAlpha" operator="out"/>
<feColorMatrix type="matrix" values="0 0 0 0 0 0 0 0 0 0 0 0 0 0 0 0 0 0 0.15 0"/>
<feBlend mode="normal" in2="BackgroundImageFix" result="effect1_dropShadow_601_6176"/>
<feBlend mode="normal" in="SourceGraphic" in2="effect1_dropShadow_601_6176" result="shape"/>
</filter>
</defs>
</svg>
