<svg width="13" height="15" viewBox="0 0 13 15" fill="none" xmlns="http://www.w3.org/2000/svg">
<g opacity="0.5">
<path d="M0.901478 4.43783L1.66903 13.7035C1.72403 14.3717 2.2932 14.8956 2.96394 14.8956H10.0361C10.7068 14.8956 11.276 14.3717 11.331 13.7035L12.0985 4.43783H0.901478ZM4.33293 13.1623C4.10609 13.1623 3.91525 12.9858 3.90087 12.756L3.46753 5.76489C3.45271 5.52581 3.63425 5.32015 3.87293 5.30533C4.12048 5.28797 4.31727 5.47164 4.3325 5.71073L4.76583 12.7018C4.78117 12.9494 4.58527 13.1623 4.33293 13.1623ZM6.93333 12.7289C6.93333 12.9685 6.73952 13.1623 6.5 13.1623C6.26048 13.1623 6.06667 12.9685 6.06667 12.7289V5.73783C6.06667 5.49831 6.26048 5.30449 6.5 5.30449C6.73952 5.30449 6.93333 5.49831 6.93333 5.73783V12.7289ZM9.53247 5.76492L9.09913 12.756C9.08489 12.9835 8.89529 13.1731 8.63957 13.1614C8.40089 13.1466 8.21935 12.941 8.23417 12.7019L8.6675 5.71076C8.68232 5.47167 8.8918 5.29773 9.12707 5.30536C9.36575 5.32018 9.54729 5.52584 9.53247 5.76492Z" fill="black"/>
<path d="M12.1333 1.83783H9.53333V1.40449C9.53333 0.687643 8.95018 0.104492 8.23333 0.104492H4.76667C4.04982 0.104492 3.46667 0.687643 3.46667 1.40449V1.83783H0.866667C0.388007 1.83783 0 2.22583 0 2.70449C0 3.18309 0.388007 3.57116 0.866667 3.57116C4.85235 3.57116 8.14779 3.57116 12.1333 3.57116C12.612 3.57116 13 3.18309 13 2.70449C13 2.22583 12.612 1.83783 12.1333 1.83783ZM8.66667 1.83783H4.33333V1.40449C4.33333 1.16541 4.52758 0.971159 4.76667 0.971159H8.23333C8.47242 0.971159 8.66667 1.16541 8.66667 1.40449V1.83783Z" fill="black"/>
</g>
</svg>
