<svg width="17" height="22" viewBox="0 0 17 22" fill="none" xmlns="http://www.w3.org/2000/svg">
<path d="M7.92311 8.71007C10.0639 8.43453 11.5689 6.46332 11.2934 4.3225C11.0178 2.20286 9.0466 0.67674 6.90579 0.973434C4.76497 1.24897 3.26002 3.19906 3.5569 5.33987C3.83243 7.48068 5.78234 8.98564 7.92316 8.71011L7.92311 8.71007Z" fill="#F78721"/>
<path d="M16.5276 5.9326C15.5314 5.25426 14.196 5.61458 13.4542 5.91145C13.2635 5.99624 13.2846 6.25062 13.4754 6.29293C14.4292 6.56846 14.853 6.99243 15.4043 7.47988C16.4641 8.37014 17.6934 6.71691 16.5276 5.93263L16.5276 5.9326Z" fill="#F78721"/>
<path d="M11.7164 7.26865C12.4159 7.62897 12.6915 8.0318 13.0518 8.49807C13.7301 9.34581 14.9382 8.26485 14.1539 7.4594C13.4756 6.75989 12.3735 6.84471 11.7587 6.95065C11.6103 6.99313 11.5891 7.20503 11.7164 7.26867L11.7164 7.26865Z" fill="#F78721"/>
<path d="M12.374 5.23351C13.1583 4.91549 13.6669 4.95798 14.2816 4.97913C15.4474 5.02144 15.3838 3.28343 14.1968 3.36824C13.1582 3.45303 12.48 4.38557 12.1408 4.97913C12.056 5.12756 12.2044 5.29715 12.374 5.23351H12.374Z" fill="#F78721"/>
<path d="M12.7338 10.0666L10.5294 11.9955C10.5294 11.9955 7.98592 10.4906 7.51947 10.2151C7.05319 9.93953 6.58691 9.70632 6.22657 9.57921C4.57334 8.98564 2.81404 9.5369 2.30529 10.9782C1.88132 12.1863 1.22432 18.206 0.99109 20.3257C0.948781 20.7283 1.26662 21.0675 1.66943 21.0675H7.13782C7.6041 21.0675 8.00691 20.7072 8.02808 20.2198L8.40957 14.7088L9.85087 15.5566C10.19 15.7473 10.5715 15.8321 10.953 15.7685C11.271 15.7262 11.5889 15.5777 11.8644 15.3658L15.0014 12.6528C15.7221 12.0169 15.7857 10.9571 15.171 10.2365C14.5353 9.5158 13.4543 9.43103 12.7337 10.0669L12.7338 10.0666ZM4.31908 11.0416C4.6371 11.0416 4.8913 11.296 4.8913 11.6139C4.8913 11.9319 4.63692 12.1861 4.31908 12.1861C4.00106 12.1861 3.74686 11.9317 3.74686 11.6139C3.74686 11.296 4.00107 11.0416 4.31908 11.0416ZM3.00488 19.7321C2.68686 19.7321 2.43267 19.4777 2.43267 19.1599C2.43267 18.8418 2.68705 18.5877 3.00488 18.5877C3.3229 18.5877 3.5771 18.842 3.5771 19.1599C3.57727 19.4777 3.32289 19.7321 3.00488 19.7321ZM3.61957 15.9804C3.30155 15.9804 3.04736 15.726 3.04736 15.4082C3.04736 15.0901 3.30174 14.8359 3.61957 14.8359C3.93759 14.8359 4.19179 15.0903 4.19179 15.4082C4.17064 15.726 3.91643 15.9804 3.61957 15.9804ZM4.74306 18.0364C4.42504 18.0364 4.17085 17.782 4.17085 17.4642C4.17085 17.1462 4.42522 16.892 4.74306 16.892C5.06108 16.892 5.31528 17.1464 5.31528 17.4642C5.31528 17.7821 5.0609 18.0364 4.74306 18.0364ZM4.76422 13.9669C4.76422 13.6488 5.0186 13.3946 5.33643 13.3946C5.65445 13.3946 5.90865 13.649 5.90865 13.9669C5.90865 14.2849 5.65427 14.5391 5.33643 14.5391C5.03974 14.5391 4.76422 14.2847 4.76422 13.9669ZM6.09958 19.732C5.78156 19.732 5.52737 19.4776 5.52737 19.1598C5.52737 18.8418 5.78175 18.5876 6.09958 18.5876C6.4176 18.5876 6.6718 18.8419 6.6718 19.1598C6.6718 19.4776 6.41742 19.732 6.09958 19.732ZM6.60833 16.4042C6.29031 16.4042 6.03612 16.1499 6.03612 15.832C6.03612 15.514 6.2905 15.2598 6.60833 15.2598C6.92636 15.2598 7.18055 15.5142 7.18055 15.832C7.18055 16.1499 6.92617 16.4042 6.60833 16.4042ZM6.90502 12.8008C6.587 12.8008 6.33281 12.5464 6.33281 12.2285C6.33281 11.9105 6.58719 11.6563 6.90502 11.6563C7.22304 11.6563 7.47724 11.9107 7.47724 12.2285C7.47724 12.5466 7.22286 12.8008 6.90502 12.8008Z" fill="#F78721"/>
</svg>
