<svg width="16" height="22" viewBox="0 0 16 22" fill="none" xmlns="http://www.w3.org/2000/svg">
<path d="M3.00516 4.86405H10.3458C10.9465 4.86405 11.4342 4.37684 11.4342 3.77556V2.0532C11.4342 1.4523 10.9466 0.964844 10.3458 0.964844H3.00516C2.40407 0.964844 1.91699 1.45225 1.91699 2.0532V3.77536C1.91699 4.37703 2.40407 4.86405 3.00516 4.86405Z" fill="#1A7934"/>
<path d="M10.2629 15.2973C9.00121 16.5587 8.91729 18.5506 10.0099 19.9111L14.8764 15.0437C13.5162 13.9516 11.5241 14.0354 10.2629 15.2971L10.2629 15.2973Z" fill="#1A7934"/>
<path d="M9.9465 14.982C10.6847 14.2436 11.6659 13.8377 12.7098 13.8377C12.8938 13.8377 13.0768 13.8537 13.2584 13.8792C13.3645 12.2108 13.4404 9.84841 13.1131 8.84697C12.7552 7.75266 10.3929 5.12988 10.3929 5.12988L2.95745 5.13007C2.95745 5.13007 0.595093 7.75285 0.237372 8.84716C-0.294518 10.4746 0.237372 15.6958 0.237372 15.6958C0.237372 17.1975 1.45556 18.4157 2.95745 18.4157H8.86073C8.6492 17.1986 9.01644 15.9116 9.94665 14.9819L9.9465 14.982ZM7.68054 15.7182H5.66909L5.66928 13.009H2.95977V10.9974H5.66947V8.28736H7.68092V10.9972H10.3911V13.0088L7.68054 13.009L7.68054 15.7182Z" fill="#1A7934"/>
<path d="M15.24 15.4073L10.373 20.2742C11.7332 21.3659 13.7255 21.2828 14.987 20.0214C16.2484 18.7591 16.3323 16.767 15.2399 15.4072L15.24 15.4073Z" fill="#1A7934"/>
</svg>
