<svg width="15" height="18" viewBox="0 0 15 18" fill="none" xmlns="http://www.w3.org/2000/svg">
<path d="M8.65748 4.07581C8.65748 1.95244 6.95011 0.245117 4.82679 0.245117C2.70346 0.245117 0.996094 1.95249 0.996094 4.07581V8.34437H8.65748V4.07581Z" fill="#8122CC"/>
<path d="M8.17593 10.3801C8.32923 10.2488 8.50437 10.1392 8.65748 10.0298V9.00098H0.996094V13.2695C0.996094 15.3929 2.70346 17.1004 4.82679 17.1004C5.76802 17.1004 6.6217 16.772 7.27857 16.2029C6.09647 14.3422 6.46861 11.8249 8.17593 10.3802V10.3801Z" fill="#8122CC"/>
<path d="M14.284 11.54L8.28613 16.5968C9.70891 18.0416 12.0292 18.151 13.6054 16.8156C15.1815 15.5023 15.4442 13.1819 14.284 11.5402V11.54Z" fill="#8122CC"/>
<path d="M8.65768 10.708C8.61399 10.7517 8.57011 10.7737 8.52642 10.8174C7.03792 12.0871 6.70946 14.2104 7.67274 15.8303C7.73846 15.9178 7.78215 16.0273 7.84788 16.1148L13.8457 11.0581C12.4666 9.63531 10.2338 9.48217 8.6577 10.708L8.65768 10.708Z" fill="#8122CC"/>
</svg>
