<svg width="14" height="18" viewBox="0 0 14 18" fill="none" xmlns="http://www.w3.org/2000/svg">
<path d="M11.9635 0.373047H0.58193C0.427578 0.373047 0.279526 0.435713 0.170475 0.547223C0.0612795 0.658889 0 0.810139 0 0.967987V16.7781C0 16.9358 0.0612795 17.0872 0.170475 17.1989C0.279518 17.3104 0.427575 17.373 0.58193 17.373H11.9635C12.5033 17.3724 13.021 17.1529 13.4029 16.7624C13.7845 16.3719 13.9994 15.8427 14 15.2905V2.45564C13.9994 1.90344 13.7845 1.37416 13.4029 0.983708C13.021 0.593264 12.5033 0.37369 11.9635 0.373047V0.373047ZM12.8363 15.2906H12.8361C12.8361 15.5273 12.7443 15.7544 12.5806 15.9216C12.4169 16.089 12.1949 16.1831 11.9635 16.1831H3.17137V1.56312H11.9635C12.1949 1.56312 12.4169 1.6572 12.5806 1.82447C12.7443 1.99189 12.8361 2.219 12.8361 2.45567L12.8363 15.2906ZM11.6522 3.9016V7.83776C11.6522 7.99561 11.5907 8.14701 11.4817 8.25853C11.3725 8.37019 11.2246 8.43286 11.0702 8.43286H4.93754C4.78319 8.43286 4.63513 8.37019 4.52608 8.25853C4.41689 8.14702 4.35561 7.99561 4.35561 7.83776V3.9016C4.35561 3.74375 4.41689 3.59251 4.52608 3.48083C4.63513 3.36932 4.78318 3.30666 4.93754 3.30666H11.0702C11.2246 3.30666 11.3725 3.36932 11.4817 3.48083C11.5907 3.5925 11.6522 3.74375 11.6522 3.9016V3.9016ZM11.5067 11.7857H11.5066C11.5066 11.9436 11.4453 12.0948 11.3363 12.2065C11.2271 12.318 11.0792 12.3807 10.9248 12.3807H5.0799C4.87194 12.3807 4.67996 12.2673 4.57601 12.0832C4.47203 11.8992 4.47203 11.6723 4.57601 11.4881C4.67998 11.3041 4.87196 11.1907 5.0799 11.1907H10.9248C11.0792 11.1907 11.2271 11.2533 11.3363 11.365C11.4453 11.4765 11.5066 11.6279 11.5066 11.7858L11.5067 11.7857ZM11.5067 14.1154L11.5066 14.1152C11.5066 14.2731 11.4453 14.4245 11.3363 14.536C11.2271 14.6476 11.0792 14.7103 10.9248 14.7103H5.0799C4.87194 14.7103 4.67996 14.5969 4.57601 14.4128C4.47203 14.2286 4.47203 14.0018 4.57601 13.8177C4.67998 13.6337 4.87196 13.5203 5.0799 13.5203H10.9248C11.0792 13.5203 11.2271 13.5829 11.3363 13.6945C11.4453 13.8061 11.5066 13.9575 11.5066 14.1152L11.5067 14.1154Z" fill="#2133D9"/>
</svg>
