<svg width="18" height="18" viewBox="0 0 18 18" fill="none" xmlns="http://www.w3.org/2000/svg">
<path d="M16.2228 15.2548L16.5769 17.3587C16.586 17.4126 16.5708 17.4678 16.5356 17.5094C16.5002 17.5511 16.4484 17.5753 16.3937 17.5753L1.58079 17.5751C1.5261 17.5751 1.47417 17.5511 1.43894 17.5093C1.4037 17.4676 1.38854 17.4125 1.39758 17.3585L1.75174 15.2547C1.84825 14.6812 2.31958 14.2383 2.89774 14.1778L6.17272 13.8334C6.45704 13.8036 6.67151 13.5654 6.67151 13.2794V12.0263C7.33358 12.524 8.11943 12.8411 8.98723 12.8411C9.85503 12.8411 10.6409 12.524 11.3028 12.0263V13.2794C11.3028 13.5654 11.5174 13.8036 11.8017 13.8334L15.0767 14.1778C15.655 14.2385 16.1262 14.6813 16.2229 15.2549L16.2228 15.2548ZM4.44395 6.14426C3.88297 6.37603 3.84607 7.10552 4.04842 7.86838C4.23838 8.58422 4.72705 8.85014 5.19548 8.85014C5.20283 8.85014 5.21003 8.85014 5.21723 8.84999C5.64982 10.5931 7.17374 12.284 8.98731 12.284C10.8009 12.284 12.3248 10.5931 12.7574 8.84999C12.7646 8.85014 12.7719 8.85014 12.7791 8.85014C13.2476 8.85014 13.7364 8.58422 13.9262 7.86838C14.1286 7.10552 14.0915 6.37603 13.5307 6.14426C13.4227 6.09969 13.3082 6.07855 13.1917 6.07855C13.0872 6.07855 12.981 6.0954 12.8757 6.12741C12.7775 3.90376 11.0743 2.13329 8.98734 2.13329C6.90036 2.13329 5.19722 3.9038 5.09902 6.12741C4.99378 6.0954 4.88747 6.07855 4.783 6.07855C4.66642 6.07855 4.55199 6.09968 4.444 6.14426H4.44395ZM3.30838 1.88975C3.32968 2.01123 3.42833 2.10437 3.55072 2.11861L4.33472 2.20914L4.50261 3.20209C4.52559 3.33812 4.64355 3.43416 4.77697 3.43416C4.79244 3.43416 4.80807 3.43294 4.82369 3.43033C4.97535 3.4046 5.07768 3.26091 5.05194 3.10926L4.84927 1.90996C4.82859 1.78772 4.72963 1.69382 4.60663 1.67957L3.82141 1.58888L3.65597 0.642648C3.62947 0.491147 3.48532 0.390044 3.33366 0.41624C3.18216 0.442742 3.08075 0.587045 3.10725 0.738547L3.30838 1.88975ZM2.36889 4.44599L2.98732 3.95579L3.80811 4.53928C3.85713 4.57405 3.9135 4.59075 3.96926 4.59075C4.05643 4.59075 4.14221 4.55 4.19659 4.47356C4.28574 4.34811 4.25633 4.17424 4.13087 4.08509L3.13962 3.38026C3.03867 3.30873 2.90249 3.31225 2.80506 3.38899L2.18573 3.88009L1.39973 3.32801C1.27412 3.23963 1.10025 3.27011 1.01156 3.39588C0.923168 3.52179 0.953497 3.69551 1.07942 3.78405L2.03561 4.45562C2.13672 4.5267 2.27213 4.52271 2.36895 4.44597L2.36889 4.44599ZM13.1512 3.43038C13.167 3.43298 13.1827 3.43421 13.198 3.43421C13.3314 3.43421 13.4493 3.33801 13.4723 3.20213L13.6399 2.20919L14.4238 2.11866C14.5463 2.10441 14.645 2.01143 14.6662 1.8898L14.8675 0.738739C14.894 0.587237 14.7926 0.442782 14.6411 0.416433C14.4896 0.390391 14.3452 0.491343 14.3187 0.642841L14.1532 1.58908L13.3681 1.67976C13.245 1.69401 13.146 1.78791 13.1253 1.91015L12.9228 3.10945C12.8974 3.26095 12.9997 3.40464 13.1512 3.43037L13.1512 3.43038ZM16.9633 3.39607C16.8746 3.27015 16.701 3.23982 16.5751 3.3282L15.7893 3.88028L15.1698 3.38918C15.0728 3.31213 14.9363 3.30861 14.8354 3.38045L13.8443 4.08528C13.719 4.17458 13.6896 4.34845 13.7786 4.47375C13.8329 4.55019 13.9187 4.59094 14.0057 4.59094C14.0617 4.59094 14.118 4.57424 14.167 4.53947L14.9877 3.95598L15.6061 4.44618C15.7028 4.52277 15.838 4.52691 15.9393 4.45583L16.8955 3.78426C17.0214 3.69572 17.0517 3.522 16.9633 3.39609L16.9633 3.39607Z" fill="#FF6A6A"/>
</svg>
